<svg xmlns="http://www.w3.org/2000/svg" width="180" height="180" viewBox="0 0 180 180" fill="none"><metadata><rdf:RDF xmlns:rdf="http://www.w3.org/1999/02/22-rdf-syntax-ns#" xmlns:dc="http://purl.org/dc/elements/1.1/"><rdf:Description><dc:creator>RealFaviconGenerator</dc:creator><dc:source>https://realfavicongenerator.net</dc:source></rdf:Description></rdf:RDF></metadata><g clip-path="url(#clip0_355_1453)">
<rect width="180" height="180" fill="white"></rect>
<path d="M93.0305 78.5244C93.0305 91.8662 82.2148 102.682 68.873 102.682H24.8403C30.0374 128.925 51.1684 150.437 79.3449 154.977C114.812 160.691 148.274 137.392 155.119 102.67H179.814C179.73 103.256 179.641 103.842 179.545 104.429L179.35 105.575C170.849 153.62 125.24 186.212 76.5975 179.001L75.4392 178.821C35.2652 172.35 5.56778 140.637 0.136772 102.67H24.8296V78.5244H93.0305ZM0.430536 75.5708C8.46567 26.5159 55.075 -6.79084 104.536 1.17791C145.126 7.71786 175.023 40.0234 180 78.5127H155.361C150.577 51.7291 129.233 29.6314 100.63 25.0229C64.7615 19.2439 30.9429 43.138 24.6322 78.5127H0C0.077844 77.9156 0.159628 77.3177 0.249759 76.7197L0.430536 75.5708Z" fill="black"></path>
</g><defs>
<clipPath id="clip0_355_1453">
<rect width="180" height="180" fill="white"></rect>
</clipPath>
</defs></svg>